<?xml version="1.0" standalone="no"?>
<!DOCTYPE svg PUBLIC "-//W3C//DTD SVG 20010904//EN"
 "http://www.w3.org/TR/2001/REC-SVG-20010904/DTD/svg10.dtd">
<svg version="1.0" xmlns="http://www.w3.org/2000/svg"
 width="920.000000pt" height="512.000000pt" viewBox="0 0 920.000000 512.000000"
 preserveAspectRatio="xMidYMid meet">

<g transform="translate(0.000000,512.000000) scale(0.100000,-0.100000)"
fill="#000000" stroke="none">
<path d="M3763 4466 c-119 -29 -243 -118 -308 -221 -17 -27 -80 -169 -140
-315 -59 -146 -113 -274 -119 -286 l-11 -21 -115 33 c-165 47 -222 44 -284
-14 -45 -42 -56 -80 -56 -190 l0 -98 -82 -59 c-305 -217 -525 -575 -589 -955
-18 -108 -16 -375 4 -486 109 -606 590 -1086 1192 -1188 255 -44 521 -21 756
65 382 139 696 442 854 823 l33 81 684 0 683 0 5 -180 c5 -195 10 -213 67
-267 63 -60 99 -68 318 -68 189 0 203 1 251 24 57 26 109 84 125 136 7 23 9
265 7 710 l-4 675 -28 125 c-23 103 -65 236 -100 321 -6 14 2 18 41 24 65 10
114 36 156 85 44 52 57 104 57 222 -1 136 -25 190 -102 229 -52 27 -95 24
-238 -15 -69 -19 -125 -34 -126 -33 0 1 -51 126 -114 277 -62 151 -124 297
-138 325 -32 65 -122 152 -198 192 -122 65 -74 63 -1309 62 -860 -1 -1132 -4
-1172 -13z m2253 -200 c68 -31 120 -79 148 -135 41 -81 368 -883 373 -915 7
-44 -11 -83 -49 -106 -32 -20 -51 -20 -965 -20 -549 0 -933 4 -933 9 0 17
-184 173 -275 233 -214 141 -434 216 -701 238 -64 5 -118 11 -120 13 -7 7 228
563 250 592 29 38 93 83 143 101 31 11 225 13 1058 13 l1020 1 51 -24z m-2396
-1136 c355 -44 648 -249 806 -562 254 -506 47 -1126 -461 -1378 -616 -306
-1352 67 -1470 746 -116 669 456 1276 1125 1194z m2941 -569 l29 -29 0 -186
c0 -117 -4 -194 -11 -210 -24 -53 -47 -56 -416 -56 -302 0 -342 2 -373 18 -50
24 -59 60 -59 233 -1 173 3 201 37 234 l25 25 369 0 370 0 29 -29z"/>
<path d="M3995 2723 c-16 -8 -38 -23 -48 -31 -10 -9 -140 -182 -289 -384 -148
-203 -273 -368 -277 -368 -4 0 -86 56 -180 125 -180 130 -226 152 -290 140
-135 -25 -200 -184 -121 -295 18 -25 438 -336 512 -379 48 -28 98 -34 162 -21
45 9 66 21 106 58 48 46 640 845 673 909 30 58 16 155 -31 206 -48 53 -155 73
-217 40z"/>
</g>
</svg>
